# xmcd
#
# Track frame offsets:
#	150
#	21695
#	40031
#	58585
#	79642
#	96557
#
# Disc length: 1533 seconds
#
# Revision: 0
# Processed by: cddbd v1.5.2PL0 Copyright (c) Steve Scherf et al.
# Submitted via: EZCDAudioConverter 5.5.0.1
#
DISCID=4a05fb06
DTITLE=Caroline Spence - You Know the Feeling
DYEAR=2013
DGENRE=Country
TTITLE0=Everything I Need
TTITLE1=Shape in My Bed
TTITLE2=No Color but the Blues
TTITLE3=That Necklace
TTITLE4=Whiskey Watered Down
TTITLE5=Heartachin'
EXTD=
EXTT0=
EXTT1=
EXTT2=
EXTT3=
EXTT4=
EXTT5=
PLAYORDER=
